<?xml version="1.0" encoding="iso-8859-1"?>
<!-- Generator: Adobe Illustrator 27.2.0, SVG Export Plug-In . SVG Version: 6.00 Build 0)  -->
<svg version="1.1" id="Capa_1" xmlns="http://www.w3.org/2000/svg" xmlns:xlink="http://www.w3.org/1999/xlink" x="0px" y="0px"
	 viewBox="0 0 512 512" style="enable-background:new 0 0 512 512;" xml:space="preserve">
<g>
	<g>
		<g>
			<g>
				<path style="fill:#33CCCC;" d="M231.99,355.962c0,25.59-20.82,46.41-46.42,46.41c-23.03,0-42.79-17.17-45.97-39.95
					c-0.29-2.13-0.44-4.31-0.44-6.46c0-6.08,4.92-11,11-11c6.07,0,11,4.92,11,11c0,1.14,0.08,2.29,0.23,3.42
					c1.67,11.97,12.07,20.99,24.18,20.99c13.47,0,24.42-10.95,24.42-24.41c0-13.47-10.95-24.42-24.42-24.42
					c-0.12,0-0.24,0-0.35-0.01c-5.91-0.18-10.65-5.03-10.65-10.99c0-4.12,2.385-7.98,6.068-9.827
					c1.523-0.764,3.229-1.173,4.932-1.173c13.47,0,24.42-10.95,24.42-24.42c0-13.46-10.95-24.41-24.42-24.41
					c-11.64,0-21.72,8.27-23.95,19.67c-1.18,5.96-6.96,9.84-12.92,8.67c-5.96-1.17-9.84-6.95-8.67-12.91
					c4.26-21.69,23.41-37.43,45.54-37.43c25.6,0,46.42,20.82,46.42,46.41c0,14.19-6.39,26.91-16.45,35.42
					C225.6,329.052,231.99,341.772,231.99,355.962z"/>
			</g>
		</g>
		<g>
			<g>
				<path style="fill:#33CCCC;" d="M321.819,402.374c-28.135,0-51.024-22.889-51.024-51.024v-64.008
					c0-28.135,22.889-51.024,51.024-51.024c28.135,0,51.025,22.89,51.025,51.024v64.008
					C372.844,379.485,349.954,402.374,321.819,402.374z M321.819,258.318c-16.004,0-29.024,13.021-29.024,29.024v64.008
					c0,16.004,13.02,29.024,29.024,29.024s29.025-13.02,29.025-29.024v-64.008C350.844,271.338,337.823,258.318,321.819,258.318z"/>
			</g>
		</g>
	</g>
	<g>
		<g>
			<g>
				<g>
					<g>
						<path d="M501,51.682H11c-6.08,0-11,4.93-11,11v415.1c0,6.08,4.92,11,11,11h490c6.08,0,11-4.92,11-11v-415.1
							C512,56.612,507.08,51.682,501,51.682z M22,73.682h468v79.66H22V73.682z M490,466.782H22v-291.44h468V466.782z"/>
					</g>
				</g>
				<g>
					<g>
						<path style="fill:#33CCCC;" d="M438.988,103.167c-6.075,0-11-4.925-11-11V34.218c0-6.075,4.925-11,11-11s11,4.925,11,11
							v57.949C449.988,98.243,445.063,103.167,438.988,103.167z"/>
					</g>
					<g>
						<path style="fill:#33CCCC;" d="M377.992,103.167c-6.075,0-11-4.925-11-11V34.218c0-6.075,4.925-11,11-11s11,4.925,11,11
							v57.949C388.992,98.243,384.067,103.167,377.992,103.167z"/>
					</g>
					<g>
						<path style="fill:#33CCCC;" d="M316.996,103.167c-6.075,0-11-4.925-11-11V34.218c0-6.075,4.925-11,11-11
							c6.075,0,11,4.925,11,11v57.949C327.996,98.243,323.071,103.167,316.996,103.167z"/>
					</g>
					<g>
						<path style="fill:#33CCCC;" d="M256,103.167c-6.075,0-11-4.925-11-11V34.218c0-6.075,4.925-11,11-11c6.075,0,11,4.925,11,11
							v57.949C267,98.243,262.075,103.167,256,103.167z"/>
					</g>
					<g>
						<path style="fill:#33CCCC;" d="M195.004,103.167c-6.075,0-11-4.925-11-11V34.218c0-6.075,4.925-11,11-11s11,4.925,11,11
							v57.949C206.004,98.243,201.08,103.167,195.004,103.167z"/>
					</g>
					<g>
						<path style="fill:#33CCCC;" d="M134.008,103.167c-6.075,0-11-4.925-11-11V34.218c0-6.075,4.925-11,11-11
							c6.075,0,11,4.925,11,11v57.949C145.008,98.243,140.083,103.167,134.008,103.167z"/>
					</g>
					<g>
						<path style="fill:#33CCCC;" d="M73.013,103.167c-6.075,0-11-4.925-11-11V34.218c0-6.075,4.925-11,11-11
							c6.075,0,11,4.925,11,11v57.949C84.013,98.243,79.088,103.167,73.013,103.167z"/>
					</g>
				</g>
			</g>
		</g>
	</g>
</g>
<g>
</g>
<g>
</g>
<g>
</g>
<g>
</g>
<g>
</g>
<g>
</g>
<g>
</g>
<g>
</g>
<g>
</g>
<g>
</g>
<g>
</g>
<g>
</g>
<g>
</g>
<g>
</g>
<g>
</g>
</svg>
