<?xml version="1.0" encoding="iso-8859-1"?>
<!-- Generator: Adobe Illustrator 26.5.3, SVG Export Plug-In . SVG Version: 6.00 Build 0)  -->
<svg version="1.1" id="Capa_1" xmlns="http://www.w3.org/2000/svg" xmlns:xlink="http://www.w3.org/1999/xlink" x="0px" y="0px"
	 viewBox="0 0 512 512" style="enable-background:new 0 0 512 512;" xml:space="preserve">
<g>
	<g>
		<path style="fill:#33CCCC;" d="M320.034,50.794c-19.498,0-35.36,15.862-35.36,35.359s15.862,35.359,35.36,35.359
			c19.497,0,35.359-15.862,35.359-35.359S339.531,50.794,320.034,50.794z M320.034,99.513c-7.367,0-13.36-5.993-13.36-13.359
			s5.993-13.359,13.36-13.359c7.366,0,13.359,5.993,13.359,13.359S327.4,99.513,320.034,99.513z"/>
		<path style="fill:#33CCCC;" d="M304.823,394.778c-6.075,0-11,4.925-11,11c0,4.839-3.937,8.776-8.776,8.776
			s-8.776-3.937-8.776-8.776v-8.04c0-16.97-13.806-30.776-30.775-30.776s-30.776,13.806-30.776,30.776v7.212
			c0,0.14,0.016,0.275,0.021,0.414c-0.005,0.138-0.021,0.274-0.021,0.414c0,4.839-3.937,8.776-8.776,8.776c-6.075,0-11,4.925-11,11
			s4.925,11,11,11c16.97,0,30.776-13.806,30.776-30.776c0-0.14-0.016-0.275-0.021-0.414c0.005-0.138,0.021-0.274,0.021-0.414v-7.212
			c0-4.839,3.937-8.776,8.776-8.776s8.775,3.937,8.775,8.776v8.04c0,16.97,13.806,30.776,30.776,30.776s30.776-13.806,30.776-30.776
			C315.823,399.703,310.898,394.778,304.823,394.778z"/>
	</g>
	<g>
		<path d="M482.949,147.928C482.949,147.928,482.949,147.928,482.949,147.928c-16.444-11.512-39.19-7.5-50.704,8.946l-7.022,10.032
			c-1.904-0.192-3.844-0.137-5.78,0.205c-0.15,0.026-0.293,0.071-0.441,0.1V31c0-17.093-13.907-31-31-31H44.536
			c-17.093,0-31,13.907-31,31v450c0,17.093,13.907,31,31,31H388c17.093,0,31-13.907,31-31V321.534l64.179-91.677
			c3.217-4.595,4.452-10.168,3.478-15.692c-0.342-1.936-0.954-3.777-1.786-5.5l7.023-10.032
			C503.406,182.187,499.393,159.441,482.949,147.928z M395.43,316.842l-27.12,38.74l-41.247-28.875l27.12-38.74L395.43,316.842z
			 M346.872,367.429l-4.052,5.789c-4.557,6.508-13.559,8.095-20.064,3.54c-6.508-4.556-8.096-13.557-3.54-20.064l4.053-5.789
			L346.872,367.429z M408.047,298.819L366.8,269.944l56.536-80.759l20.623,14.437l20.623,14.438L408.047,298.819z M450.267,169.491
			c4.556-6.507,13.557-8.096,20.065-3.541h0c6.507,4.556,8.096,13.557,3.54,20.064l-5.493,7.846l-23.604-16.524L450.267,169.491z
			 M397,481c0,4.962-4.038,9-9,9H44.536c-4.962,0-9-4.038-9-9V31c0-4.962,4.038-9,9-9H388c4.962,0,9,4.038,9,9v157.355
			c0,0.028,0.004,0.054,0.004,0.082L308.467,314.91c-4.51,6.443-4.878,14.558-1.686,21.185l-5.588,7.983
			c-9.315,13.305-8.462,30.733,0.911,43l-6.357,9.081c-3.484,4.977-2.274,11.835,2.703,15.319c1.92,1.344,4.12,1.99,6.298,1.99
			c3.468,0,6.881-1.636,9.021-4.693l6.356-9.08c3.545,1.109,7.2,1.656,10.84,1.656c11.487-0.001,22.803-5.412,29.876-15.515
			l5.581-7.973c0.692,0.07,1.388,0.118,2.088,0.118c1.226,0,2.461-0.107,3.693-0.325c5.524-0.975,10.337-4.042,13.555-8.637
			L397,352.96V481z"/>
		<path d="M88.143,97.154h83.019c6.075,0,11-4.925,11-11s-4.925-11-11-11H88.143c-6.075,0-11,4.925-11,11
			S82.068,97.154,88.143,97.154z"/>
		<path d="M88.143,174.398h256.25c6.075,0,11-4.925,11-11s-4.925-11-11-11H88.143c-6.075,0-11,4.925-11,11
			S82.068,174.398,88.143,174.398z"/>
		<path d="M88.143,218.745h246.29c6.075,0,11-4.925,11-11s-4.925-11-11-11H88.143c-6.075,0-11,4.925-11,11
			S82.068,218.745,88.143,218.745z"/>
		<path d="M280.68,241.092H88.143c-6.075,0-11,4.925-11,11s4.925,11,11,11H280.68c6.075,0,11-4.925,11-11
			S286.755,241.092,280.68,241.092z"/>
		<path d="M210.265,285.439H88.143c-6.075,0-11,4.925-11,11s4.925,11,11,11h122.122c6.075,0,11-4.925,11-11
			S216.34,285.439,210.265,285.439z"/>
		<path d="M132.559,414.554H88.143c-6.075,0-11,4.925-11,11s4.925,11,11,11h44.416c6.075,0,11-4.925,11-11
			S138.634,414.554,132.559,414.554z"/>
	</g>
</g>
<g>
</g>
<g>
</g>
<g>
</g>
<g>
</g>
<g>
</g>
<g>
</g>
<g>
</g>
<g>
</g>
<g>
</g>
<g>
</g>
<g>
</g>
<g>
</g>
<g>
</g>
<g>
</g>
<g>
</g>
</svg>
