<?xml version="1.0" encoding="iso-8859-1"?>
<!-- Generator: Adobe Illustrator 27.2.0, SVG Export Plug-In . SVG Version: 6.00 Build 0)  -->
<svg version="1.1" id="Capa_1" xmlns="http://www.w3.org/2000/svg" xmlns:xlink="http://www.w3.org/1999/xlink" x="0px" y="0px"
	 viewBox="0 0 512 512" style="enable-background:new 0 0 512 512;" xml:space="preserve">
<g>
	<path style="fill:#33CCCC;" d="M348.51,302.581c0,0-337.51,0-337.51,0c-6.075,0-11-4.925-11-11c0-6.075,4.925-11,11-11h337.51
		C363.004,281.122,363.199,301.951,348.51,302.581z"/>
	<path style="fill:#33CCCC;" d="M441.556,424.573h-33.602c-14.583-0.575-14.595-21.419,0-22c0,0,33.602,0,33.602,0
		C456.139,403.148,456.152,423.992,441.556,424.573z"/>
	<path d="M480.668,219.585h-29.664V57.764c0-17.276-14.055-31.332-31.332-31.332H31.332C14.056,26.432,0,40.487,0,57.764v304.979
		c0,17.276,14.056,31.332,31.332,31.332h137.423v69.494h-19.498c-6.075,0-11,4.925-11,11c0,6.075,4.925,11,11,11h152.49
		c6.075,0,11-4.925,11-11c0-6.075-4.925-11-11-11h-19.498v-69.494h55.261v60.162c0,17.276,14.056,31.332,31.332,31.332h111.826
		c17.276,0,31.332-14.056,31.332-31.332V250.917C512,233.641,497.944,219.585,480.668,219.585z M260.249,463.568h-69.494v-69.494
		h69.494V463.568z M31.332,372.075c-5.146,0-9.332-4.186-9.332-9.332V57.764c0-5.146,4.187-9.332,9.332-9.332h388.34
		c5.146,0,9.332,4.187,9.332,9.332v161.821h-60.162c-17.276,0-31.332,14.056-31.332,31.332v121.158H31.332z M490,454.236
		c0,5.146-4.186,9.332-9.332,9.332H368.842c-5.146,0-9.332-4.187-9.332-9.332V250.917c0-5.145,4.187-9.332,9.332-9.332h111.826
		c5.146,0,9.332,4.187,9.332,9.332V454.236z"/>
</g>
<g>
</g>
<g>
</g>
<g>
</g>
<g>
</g>
<g>
</g>
<g>
</g>
<g>
</g>
<g>
</g>
<g>
</g>
<g>
</g>
<g>
</g>
<g>
</g>
<g>
</g>
<g>
</g>
<g>
</g>
</svg>
