<?xml version="1.0" encoding="iso-8859-1"?>
<!-- Generator: Adobe Illustrator 29.5.1, SVG Export Plug-In . SVG Version: 9.03 Build 0)  -->
<svg version="1.1" id="Capa_1" xmlns="http://www.w3.org/2000/svg" xmlns:xlink="http://www.w3.org/1999/xlink" x="0px" y="0px"
	 viewBox="0 0 512 512" style="enable-background:new 0 0 512 512;" xml:space="preserve">
<g>
	<g>
		<path d="M203.222,380h-91.312V247h78.909c6.075,0,11-4.925,11-11v-45c0-6.075-4.925-11-11-11h-8.909v-23h8.909
			c6.075,0,11-4.925,11-11v-45c0-6.075-4.925-11-11-11h-8.909V67h8.909c6.075,0,11-4.925,11-11V11c0-6.075-4.925-11-11-11H11
			C4.925,0,0,4.925,0,11v45c0,6.075,4.925,11,11,11h8.909v23H11c-6.075,0-11,4.925-11,11v45c0,6.075,4.925,11,11,11h8.909v23H11
			c-6.075,0-11,4.925-11,11v45c0,6.075,4.925,11,11,11h78.909v144c0,6.075,4.925,11,11,11h102.312c6.075,0,11-4.925,11-11
			S209.297,380,203.222,380z M22,135v-23h157.818v23H22z M22,22h157.818v23H22V22z M41.909,67h118v23h-118V67z M41.909,157h118v23
			h-118V157z M22,202h157.818v23H22V202z"/>
		<path d="M324.888,180c-6.075,0-11,4.925-11,11V276c0,6.075,4.925,11,11,11s11-4.925,11-11V191
			C335.888,184.924,330.964,180,324.888,180z"/>
		<path d="M444.004,117.5h-86.008c-6.075,0-11,4.925-11,11s4.925,11,11,11h86.008c6.075,0,11-4.925,11-11
			S450.079,117.5,444.004,117.5z"/>
	</g>
	<g>
		<path style="fill:#33CCCC;" d="M501,0H301c-6.075,0-11,4.925-11,11v175c0,6.075,4.925,11,11,11h200c6.075,0,11-4.925,11-11V11
			C512,4.925,507.075,0,501,0z M490,22v23H385.78c-2.692,0-5.292,0.988-7.305,2.775L364.712,60H312V22H490z M312,175V82h56.892
			c2.692,0,5.292-0.988,7.305-2.775L389.96,67H490v108H312z"/>
		<path style="fill:#33CCCC;" d="M312,396.856V377h11.5c6.075,0,11-4.925,11-11s-4.925-11-11-11H312v-18h11.5
			c6.075,0,11-4.925,11-11s-4.925-11-11-11H301c-6.075,0-11,4.925-11,11v70.856c-13.085,4.562-22.5,17.024-22.5,31.644
			c0,18.472,15.028,33.5,33.5,33.5c18.472,0,33.5-15.028,33.5-33.5C334.5,413.88,325.085,401.417,312,396.856z M301,440
			c-6.341,0-11.5-5.159-11.5-11.5S294.659,417,301,417c6.341,0,11.5,5.159,11.5,11.5S307.341,440,301,440z"/>
		<path style="fill:#33CCCC;" d="M357.691,273.246c-2.065-2.078-4.873-3.246-7.802-3.246h-97.778c-2.929,0-5.737,1.168-7.802,3.246
			l-48.889,49.187c-2.048,2.061-3.198,4.849-3.198,7.754c0,75.599,12.583,156.273,105.915,181.434
			c0.938,0.253,1.9,0.379,2.863,0.379s1.926-0.126,2.863-0.379c93.331-25.16,105.915-105.835,105.915-181.434
			c0-2.906-1.15-5.693-3.198-7.754L357.691,273.246z M301,489.578c-74.53-21.633-86.289-86.713-86.762-154.87L256.687,292h88.625
			l42.449,42.708C387.289,402.865,375.53,467.945,301,489.578z"/>
	</g>
</g>
<g>
</g>
<g>
</g>
<g>
</g>
<g>
</g>
<g>
</g>
<g>
</g>
<g>
</g>
<g>
</g>
<g>
</g>
<g>
</g>
<g>
</g>
<g>
</g>
<g>
</g>
<g>
</g>
<g>
</g>
</svg>
