<?xml version="1.0" encoding="iso-8859-1"?>
<!-- Generator: Adobe Illustrator 26.5.3, SVG Export Plug-In . SVG Version: 6.00 Build 0)  -->
<svg version="1.1" id="Capa_1" xmlns="http://www.w3.org/2000/svg" xmlns:xlink="http://www.w3.org/1999/xlink" x="0px" y="0px"
	 viewBox="0 0 512 512" style="enable-background:new 0 0 512 512;" xml:space="preserve">
<g>
	<g>
		<path d="M356,360c-6.075,0-11,4.925-11,11v108c0,6.065-4.935,11-11,11H78c-6.065,0-11-4.935-11-11V33c0-6.065,4.935-11,11-11h256
			c6.065,0,11,4.935,11,11v108c0,6.075,4.925,11,11,11s11-4.925,11-11V33c0-18.196-14.804-33-33-33H78C59.804,0,45,14.804,45,33v446
			c0,18.196,14.804,33,33,33h256c18.196,0,33-14.804,33-33V371C367,364.925,362.075,360,356,360z"/>
		<path d="M250,55c0-6.075-4.925-11-11-11h-66c-6.075,0-11,4.925-11,11s4.925,11,11,11h66C245.075,66,250,61.076,250,55z"/>
		<path d="M198.473,468h15c6.075,0,11-4.925,11-11s-4.925-11-11-11h-15c-6.075,0-11,4.925-11,11S192.398,468,198.473,468z"/>
	</g>
	<path style="fill:#33CCCC;" d="M436.001,135H136c-17.094,0-31,13.907-31,31v180c0,17.093,13.906,31,31,31h300.001
		C453.094,377,467,363.093,467,346V166C467,148.907,453.094,135,436.001,135z M445,285.808L383.539,256L445,226.192V285.808z
		 M127,166c0-4.963,4.037-9,9-9h300.001c4.962,0,8.999,4.037,8.999,9v35.742l-159,77.112l-159-77.113V166z M188.463,256L127,285.809
		v-59.617L188.463,256z M436.001,355H136c-4.963,0-9-4.037-9-9v-35.74l86.67-42.034l67.531,32.752
		c1.516,0.735,3.157,1.103,4.8,1.103s3.284-0.368,4.8-1.103l67.531-32.752L445,310.259V346C445,350.963,440.963,355,436.001,355z"/>
</g>
<g>
</g>
<g>
</g>
<g>
</g>
<g>
</g>
<g>
</g>
<g>
</g>
<g>
</g>
<g>
</g>
<g>
</g>
<g>
</g>
<g>
</g>
<g>
</g>
<g>
</g>
<g>
</g>
<g>
</g>
</svg>
