<?xml version="1.0" encoding="iso-8859-1"?>
<!-- Generator: Adobe Illustrator 27.0.0, SVG Export Plug-In . SVG Version: 6.00 Build 0)  -->
<svg version="1.1" id="Capa_1" xmlns="http://www.w3.org/2000/svg" xmlns:xlink="http://www.w3.org/1999/xlink" x="0px" y="0px"
	 viewBox="0 0 512 512" style="enable-background:new 0 0 512 512;" xml:space="preserve">
<g>
	<path d="M461.001,139.101H271.563V57.111C271.563,25.62,245.943,0,214.451,0H57.112C25.62,0,0,25.62,0,57.111v85.526
		c0,31.491,25.62,57.111,57.111,57.111h21.574l54.603,44.564c2.002,1.634,4.468,2.478,6.957,2.478c1.602,0,3.212-0.349,4.715-1.062
		c3.837-1.821,6.283-5.689,6.283-9.938v-36.042h28.001v93.966H52.601C23.597,293.715,0,317.312,0,346.316v71.76
		c0,29.004,23.597,52.601,52.601,52.601h41.943l48.995,38.936c1.984,1.577,4.404,2.388,6.846,2.388c1.625,0,3.26-0.36,4.779-1.093
		c3.802-1.835,6.219-5.685,6.219-9.907v-30.324h32.167c29.004,0,52.601-23.597,52.601-52.601V376.1h72.491v39.809
		c0,4.465,2.699,8.487,6.831,10.18c1.35,0.552,2.764,0.821,4.167,0.821c2.892,0,5.733-1.142,7.843-3.285L384.25,376.1h76.751
		c28.121,0,50.999-22.878,50.999-51v-135C512,161.979,489.122,139.101,461.001,139.101z M140.243,177.749c-6.075,0-11,4.925-11,11
		v23.866L89.56,180.227c-1.964-1.603-4.42-2.478-6.955-2.478H57.112c-19.36,0-35.111-15.751-35.111-35.111V57.111
		C22,37.751,37.751,22,57.112,22h157.34c19.36,0,35.111,15.751,35.111,35.111v81.989h-19.319c-23.863,0-43.951,16.475-49.487,38.648
		H140.243z M193.55,448.677h-43.167c-6.075,0-11,4.925-11,11v18.532l-34.156-27.144c-1.946-1.546-4.358-2.388-6.844-2.388H52.601
		C35.728,448.677,22,434.949,22,418.076v-71.76c0-16.873,13.728-30.601,30.601-30.601h126.644v9.385
		c0,26.06,19.647,47.617,44.906,50.638v42.338C224.151,434.949,210.423,448.677,193.55,448.677z M490,325.1
		c0,15.991-13.009,29-28.999,29h-81.359c-2.948,0-5.772,1.183-7.84,3.285l-31.16,31.664V365.1c0-6.075-4.925-11-11-11h-99.398
		c-15.99,0-28.999-13.009-28.999-29v-135c0-15.991,13.009-29,28.999-29h230.758c15.99,0,28.999,13.009,28.999,29V325.1z"/>
	<g>
		<path style="fill:#33CCCC;" d="M90.15,393.696H61c-6.075,0-11,4.925-11,11s4.925,11,11,11H90.15c6.075,0,11-4.925,11-11
			S96.225,393.696,90.15,393.696z"/>
		<path style="fill:#33CCCC;" d="M283.233,202.601h-38.5c-6.075,0-11,4.925-11,11v88c0,6.075,4.925,11,11,11s11-4.925,11-11v-33
			h16.087c6.075,0,11-4.925,11-11s-4.925-11-11-11h-16.087v-22h27.5c6.075,0,11-4.925,11-11S289.308,202.601,283.233,202.601z"/>
		<path style="fill:#33CCCC;" d="M340.233,202.601c-18.196,0-33,14.804-33,33v66c0,6.075,4.925,11,11,11s11-4.925,11-11v-22.001h22
			V301.6c0,6.075,4.925,11,11,11s11-4.925,11-11v-66C373.233,217.404,358.429,202.601,340.233,202.601z M351.233,257.599h-22
			v-21.999c0-6.065,4.935-11,11-11s11,4.935,11,11V257.599z"/>
		<path style="fill:#33CCCC;" d="M454.012,293.823l-0.003-0.003c2.066-4.308,3.223-9.131,3.223-14.219v-44c0-18.196-14.804-33-33-33
			c-18.195,0-32.999,14.804-32.999,33v44c0,18.196,14.804,33,33,33c5.089,0,9.912-1.158,14.22-3.224l0.001,0.002
			c2.148,2.148,4.963,3.222,7.778,3.222c2.814,0,5.63-1.074,7.778-3.222C458.308,305.083,458.308,298.119,454.012,293.823z
			 M413.234,279.601v-44c0-6.065,4.935-11,10.999-11h0.001c6.064,0,10.999,4.935,10.999,11v44c-2.814,0-5.629,1.074-7.777,3.222
			c-2.148,2.148-3.222,4.964-3.222,7.779h-0.001C418.168,290.601,413.234,285.667,413.234,279.601z"/>
		<path style="fill:#33CCCC;" d="M140.562,111.375H61c-6.075,0-11,4.925-11,11s4.925,11,11,11h79.562c6.075,0,11-4.925,11-11
			S146.637,111.375,140.562,111.375z"/>
		<path style="fill:#33CCCC;" d="M210.563,66.374H61c-6.075,0-11,4.925-11,11s4.925,11,11,11h149.562c6.075,0,11-4.925,11-11
			S216.638,66.374,210.563,66.374z"/>
		<path style="fill:#33CCCC;" d="M132.621,348.696H61c-6.075,0-11,4.925-11,11s4.925,11,11,11h71.621c6.075,0,11-4.925,11-11
			S138.697,348.696,132.621,348.696z"/>
	</g>
</g>
<g>
</g>
<g>
</g>
<g>
</g>
<g>
</g>
<g>
</g>
<g>
</g>
<g>
</g>
<g>
</g>
<g>
</g>
<g>
</g>
<g>
</g>
<g>
</g>
<g>
</g>
<g>
</g>
<g>
</g>
</svg>
