<?xml version="1.0" encoding="iso-8859-1"?>
<!-- Generator: Adobe Illustrator 27.0.0, SVG Export Plug-In . SVG Version: 6.00 Build 0)  -->
<svg version="1.1" id="Capa_1" xmlns="http://www.w3.org/2000/svg" xmlns:xlink="http://www.w3.org/1999/xlink" x="0px" y="0px"
	 viewBox="0 0 512 512" style="enable-background:new 0 0 512 512;" xml:space="preserve">
<g>
	<g>
		<path d="M459.515,20h-333.32c-2.917,0-5.715,1.159-7.778,3.222l-73.71,73.71c-2.062,2.063-3.222,4.861-3.222,7.778V351h22V115.71
			h62.71c6.075,0,11-4.925,11-11V42h223.32v309h22V42h22v309h22V42h22v309h22V31C470.515,24.925,465.59,20,459.515,20z
			 M79.041,93.71l36.153-36.154V93.71H79.041z"/>
		<path d="M96.485,159.71h231.03c6.075,0,11-4.925,11-11s-4.925-11-11-11H96.485c-6.075,0-11,4.925-11,11
			S90.41,159.71,96.485,159.71z"/>
		<path d="M96.485,203.71h231.03c6.075,0,11-4.925,11-11s-4.925-11-11-11H96.485c-6.075,0-11,4.925-11,11
			S90.41,203.71,96.485,203.71z"/>
		<path d="M247.994,236.71c0-6.075-4.925-11-11-11H96.485c-6.075,0-11,4.925-11,11s4.925,11,11,11h140.509
			C243.069,247.71,247.994,242.785,247.994,236.71z"/>
		<path d="M341.132,416H170.868c-6.075,0-11,4.925-11,11s4.925,11,11,11h170.264c6.075,0,11-4.925,11-11S347.207,416,341.132,416z"
			/>
	</g>
	<path style="fill:#33CCCC;" d="M501,340H317.872c-5.136,0-9.588,3.554-10.727,8.562L304.091,362h-96.182l-3.054-13.438
		c-1.138-5.009-5.591-8.562-10.727-8.562H11c-6.075,0-11,4.925-11,11v130c0,6.075,4.925,11,11,11h490c6.075,0,11-4.925,11-11V351
		C512,344.925,507.075,340,501,340z M490,470H22V362h163.348l3.054,13.438c1.138,5.009,5.591,8.562,10.727,8.562h113.743
		c5.136,0,9.588-3.554,10.727-8.562L326.652,362H490V470z"/>
</g>
<g>
</g>
<g>
</g>
<g>
</g>
<g>
</g>
<g>
</g>
<g>
</g>
<g>
</g>
<g>
</g>
<g>
</g>
<g>
</g>
<g>
</g>
<g>
</g>
<g>
</g>
<g>
</g>
<g>
</g>
</svg>
