<?xml version="1.0" encoding="iso-8859-1"?>
<!-- Generator: Adobe Illustrator 27.0.0, SVG Export Plug-In . SVG Version: 6.00 Build 0)  -->
<svg version="1.1" id="Capa_1" xmlns="http://www.w3.org/2000/svg" xmlns:xlink="http://www.w3.org/1999/xlink" x="0px" y="0px"
	 viewBox="0 0 512 512" style="enable-background:new 0 0 512 512;" xml:space="preserve">
<g>
	<path d="M505.854,227.897l-24.042-24.042c-8.188-8.188-21.511-8.187-29.698,0l-63.113,63.113V66.424c0-6.075-4.925-11-11-11
		h-44.424V11c0-6.075-4.925-11-11-11H11.005c-6.075,0-11,4.925-11,11v434.576c0,6.075,4.925,11,11,11h54.904V501
		c0,6.075,4.925,11,11,11h301.092c6.075,0,11-4.925,11-11V374.449l116.854-116.853C514.042,249.408,514.042,236.085,505.854,227.897
		z M422.414,309.923l-22.627-22.627l31.253-31.253l22.628,22.627L422.414,309.923z M384.23,302.852l22.627,22.627L286.337,446
		H263.71v-22.627L384.23,302.852z M22.005,434.576V22h289.572v33.424h-141.82c-2.917,0-5.715,1.159-7.778,3.222L69.13,151.494
		c-2.062,2.063-3.222,4.861-3.222,7.778v275.304H22.005z M158.757,92.98v55.292h-55.292L158.757,92.98z M367.001,490H87.909V170.272
		h81.848c6.075,0,11-4.925,11-11V77.424h186.244v211.544L244.932,411.038c-2.063,2.063-3.222,4.861-3.222,7.778V457
		c0,6.075,4.925,11,11,11h38.184c2.917,0,5.715-1.159,7.778-3.222l68.329-68.329V490z M469.224,263.113l-22.628-22.627
		l20.367-20.367l22.627,22.627L469.224,263.113z"/>
	<g>
		<path style="fill:#33CCCC;" d="M132.333,225.696h190.244c6.075,0,11-4.925,11-11s-4.925-11-11-11H132.333c-6.075,0-11,4.925-11,11
			S126.258,225.696,132.333,225.696z"/>
		<path style="fill:#33CCCC;" d="M322.577,259.121H132.333c-6.075,0-11,4.925-11,11s4.925,11,11,11h190.244c6.075,0,11-4.925,11-11
			S328.652,259.121,322.577,259.121z"/>
		<path style="fill:#33CCCC;" d="M208.553,314.545h-76.22c-6.075,0-11,4.925-11,11s4.925,11,11,11h76.22c6.075,0,11-4.925,11-11
			S214.628,314.545,208.553,314.545z"/>
	</g>
</g>
<g>
</g>
<g>
</g>
<g>
</g>
<g>
</g>
<g>
</g>
<g>
</g>
<g>
</g>
<g>
</g>
<g>
</g>
<g>
</g>
<g>
</g>
<g>
</g>
<g>
</g>
<g>
</g>
<g>
</g>
</svg>
