<?xml version="1.0" encoding="UTF-8"?>
<!-- Generator: Adobe Illustrator 27.0.0, SVG Export Plug-In . SVG Version: 6.00 Build 0)  -->
<svg xmlns="http://www.w3.org/2000/svg" xmlns:xlink="http://www.w3.org/1999/xlink" version="1.1" id="Capa_1" x="0px" y="0px" viewBox="0 0 512 512" style="enable-background:new 0 0 512 512;" xml:space="preserve" width="512" height="512">
<g>
	<g>
		<path d="M256.003,282.25c-3.155,0-6.238-1.357-8.375-3.864l-49.507-58.074c-3.941-4.624-3.388-11.566,1.235-15.507    c4.624-3.942,11.566-3.388,15.507,1.235l27.248,31.963l-5.468-63.839c-0.519-6.053,3.968-11.38,10.021-11.899    c6.059-0.518,11.381,3.969,11.898,10.021l8.396,98.025c0.408,4.764-2.309,9.246-6.72,11.089    C258.867,281.974,257.428,282.25,256.003,282.25z"/>
	</g>
	<g>
		<path d="M437.02,74.98C388.67,26.63,324.38,0,256,0S123.33,26.63,74.98,74.98C26.63,123.33,0,187.62,0,256    s26.63,132.67,74.98,181.02C123.33,485.37,187.62,512,256,512s132.67-26.63,181.02-74.98C485.37,388.67,512,324.38,512,256    S485.37,123.33,437.02,74.98z M256,490C126.97,490,22,385.03,22,256S126.97,22,256,22s234,104.97,234,234S385.03,490,256,490z"/>
		<path style="fill:#33CCCC;" d="M450.804,255.435c-0.528-58.113-26.967-115.207-74.179-152.609    C342.708,75.957,299.876,60.751,256.57,60.64c-0.19-0.01-0.38-0.01-0.57-0.01c-0.19,0-0.38,0-0.57,0.01    c-86.199,4.644-167.803,62.95-189.06,148.582C44.625,296.821,88.576,389.693,168.698,430.24    c26.414,13.367,56.711,21.043,86.732,21.12c0.19,0.01,0.38,0.01,0.57,0.01c0.19,0,0.38,0,0.57-0.01    c74.214-3.909,141.374-41.894,174.883-110.187C444.833,313.902,451.069,284.541,450.804,255.435z M402.73,267h26.3    c-1.49,23.57-7.7,45.87-17.7,65.98l-22.76-13.14c-5.26-3.04-11.99-1.24-15.03,4.02c-3.03,5.27-1.23,11.99,4.03,15.03l22.72,13.12    c-12.74,19.1-29.18,35.54-48.28,48.28l-13.12-22.72c-3.04-5.26-9.76-7.06-15.03-4.03c-5.26,3.04-7.06,9.77-4.02,15.03l13.14,22.76    c-20.11,10-42.41,16.21-65.98,17.7v-26.3c0-6.08-4.92-11-11-11s-11,4.92-11,11v26.3c-23.57-1.49-45.87-7.7-65.98-17.7l13.14-22.76    c3.04-5.26,1.24-11.99-4.02-15.03c-5.27-3.03-11.99-1.23-15.03,4.03l-13.12,22.72c-19.1-12.74-35.54-29.18-48.28-48.28    l22.72-13.12c5.26-3.04,7.06-9.76,4.03-15.03c-3.04-5.26-9.77-7.06-15.03-4.02l-22.76,13.14c-10-20.11-16.21-42.41-17.7-65.98    h26.3c6.08,0,11-4.92,11-11s-4.92-11-11-11h-26.3c1.49-23.57,7.7-45.87,17.7-65.98l22.76,13.14c1.73,1,3.62,1.48,5.49,1.48    c3.8,0,7.5-1.98,9.54-5.5c3.03-5.27,1.23-11.99-4.03-15.03l-22.72-13.12c12.74-19.1,29.18-35.54,48.28-48.28l13.12,22.72    c2.04,3.53,5.73,5.5,9.54,5.5c1.86,0,3.75-0.47,5.49-1.47c5.26-3.04,7.06-9.77,4.02-15.03l-13.14-22.76    c20.11-10,42.41-16.21,65.98-17.7v26.3c0,6.08,4.92,11,11,11s11-4.92,11-11v-26.3c23.57,1.49,45.87,7.7,65.98,17.7l-13.14,22.76    c-3.04,5.26-1.24,11.99,4.02,15.03c1.74,1,3.63,1.47,5.49,1.47c3.81,0,7.5-1.97,9.54-5.5l13.12-22.72    c19.1,12.74,35.54,29.18,48.28,48.28l-22.72,13.12c-5.26,3.04-7.06,9.76-4.03,15.03c2.04,3.53,5.74,5.5,9.54,5.5    c1.87,0,3.76-0.48,5.49-1.48l22.76-13.14c10,20.11,16.21,42.41,17.7,65.98h-26.3c-6.08,0-11,4.92-11,11S396.65,267,402.73,267z"/>
	</g>
</g>















</svg>
