<?xml version="1.0" encoding="iso-8859-1"?>
<!-- Generator: Adobe Illustrator 27.2.0, SVG Export Plug-In . SVG Version: 6.00 Build 0)  -->
<svg version="1.1" id="Capa_1" xmlns="http://www.w3.org/2000/svg" xmlns:xlink="http://www.w3.org/1999/xlink" x="0px" y="0px"
	 viewBox="0 0 512 512" style="enable-background:new 0 0 512 512;" xml:space="preserve">
<g>
	<g>
		<path style="fill:#33CCCC;" d="M178.57,382.251c-25.636-6.624-50.327-27.666-65.459-49.329
			c-31.835-44.804-31.836-109.039,0.001-153.842c15.331-22.119,36.59-38.92,61.478-48.584c3.384-1.315,7.198-0.874,10.194,1.177
			c2.996,2.05,4.787,5.446,4.787,9.077v230.502C189.699,377.158,184.45,382.38,178.57,382.251z M167.571,158.179
			c-74.775,42.65-74.745,153.016,0,195.643V158.179z"/>
		<g>
			<path style="fill:#33CCCC;" d="M99.47,452.13c-2.82,0-5.639-1.077-7.787-3.23L29.537,386.61c-2.065-2.07-3.221-4.877-3.213-7.8
				c0.008-2.924,1.18-5.725,3.257-7.782l21.389-21.2c-6.987-12.309-12.558-25.295-16.635-38.783H11c-6.075,0-11-4.925-11-11v-88.09
				c0-6.075,4.925-11,11-11h23.336c4.077-13.488,9.649-26.478,16.634-38.783l-21.389-21.2c-2.077-2.058-3.249-4.858-3.257-7.782
				c-0.008-2.923,1.148-5.729,3.213-7.8l62.146-62.289c4.283-4.291,11.229-4.309,15.532-0.042l22.9,22.706
				c14.507-7.621,29.91-13.402,45.901-17.221c6.708-1.728,13.698,3.748,13.555,10.699c0,0,0,353.513,0,353.513
				c0,3.367-1.542,6.549-4.185,8.635c-2.644,2.086-6.101,2.847-9.37,2.064c-15.991-3.818-31.395-9.6-45.901-17.221l-22.9,22.706
				C105.07,451.067,102.27,452.13,99.47,452.13z M52.906,378.885l46.605,46.713l20.966-20.788c3.533-3.501,8.976-4.198,13.274-1.697
				c10.719,6.233,22.048,11.298,33.819,15.129V93.759c-11.771,3.831-23.101,8.896-33.819,15.129
				c-4.301,2.502-9.743,1.804-13.274-1.697L99.512,86.402l-46.605,46.713l19.669,19.496c3.662,3.63,4.312,9.316,1.562,13.678
				c-9.461,15.011-16.452,31.284-20.78,48.367c-1.236,4.881-5.629,8.299-10.663,8.299H22v66.09h20.694
				c5.035,0,9.427,3.418,10.663,8.299c4.327,17.081,11.318,33.354,20.78,48.367c2.749,4.362,2.1,10.048-1.562,13.678L52.906,378.885
				z"/>
		</g>
	</g>
	<g>
		<g>
			<path style="fill:#33CCCC;" d="M427.814,129.219c0,0-176.056,0-176.056,0c-6.075,0-11-4.925-11-11c0-6.075,4.925-11,11-11
				h176.056C442.356,107.774,442.447,128.622,427.814,129.219z"/>
			<path style="fill:#33CCCC;" d="M427.814,220.111H251.758c-6.075,0-11-4.925-11-11s4.925-11,11-11h176.056
				C442.356,198.667,442.447,219.515,427.814,220.111z"/>
			<path d="M296.44,245.128c-6.075,0-11-4.925-11-11v-50.033c0-6.075,4.925-11,11-11c6.075,0,11,4.925,11,11v50.033
				C307.44,240.203,302.515,245.128,296.44,245.128z"/>
			<path style="fill:#33CCCC;" d="M427.814,311.003H251.758c-6.075,0-11-4.925-11-11s4.925-11,11-11h176.056
				C442.356,289.558,442.447,310.406,427.814,311.003z"/>
			<path d="M383.132,336.02c-6.075,0-11-4.925-11-11v-50.033c0-6.075,4.925-11,11-11s11,4.925,11,11v50.033
				C394.132,331.095,389.207,336.02,383.132,336.02z"/>
			<path style="fill:#33CCCC;" d="M427.814,401.896H251.758c-6.075,0-11-4.925-11-11s4.925-11,11-11h176.056
				C442.356,380.451,442.447,401.299,427.814,401.896z"/>
			<path d="M296.44,429.797c-6.075,0-11-4.925-11-11v-50.032c0-6.075,4.925-11,11-11c6.075,0,11,4.925,11,11v50.032
				C307.44,424.872,302.515,429.797,296.44,429.797z"/>
			<path d="M383.132,154.235c-6.075,0-11-4.925-11-11V93.203c0-6.075,4.925-11,11-11s11,4.925,11,11v50.032
				C394.132,149.311,389.207,154.235,383.132,154.235z"/>
		</g>
		<path d="M501,510.532H178.571c-6.075,0-11-4.925-11-11V12.468c0-6.075,4.925-11,11-11H501c6.075,0,11,4.925,11,11v487.064
			C512,505.607,507.075,510.532,501,510.532z M189.571,488.532H490V23.468H189.571V488.532z"/>
	</g>
</g>
<g>
</g>
<g>
</g>
<g>
</g>
<g>
</g>
<g>
</g>
<g>
</g>
<g>
</g>
<g>
</g>
<g>
</g>
<g>
</g>
<g>
</g>
<g>
</g>
<g>
</g>
<g>
</g>
<g>
</g>
</svg>
