<?xml version="1.0" encoding="UTF-8"?>
<!-- Generator: Adobe Illustrator 26.0.3, SVG Export Plug-In . SVG Version: 6.00 Build 0)  -->
<svg xmlns="http://www.w3.org/2000/svg" xmlns:xlink="http://www.w3.org/1999/xlink" version="1.1" id="Capa_1" x="0px" y="0px" viewBox="0 0 512.014 512.014" style="enable-background:new 0 0 512.014 512.014;" xml:space="preserve" width="512" height="512">
<g>
	<path d="M256.013,512.014c-2.167,0-4.334-0.215-6.486-0.644l-0.112-0.023c-1.417-0.283-2.914-0.691-4.354-1.192   c-49.464-17.248-90.342-41.412-121.505-71.823c-27.299-26.641-48.114-59.067-61.864-96.378   C36.559,273.761,37.998,198.25,39.153,137.576l0.02-0.826c0.23-5.06,0.384-10.394,0.472-16.308   c0.394-26.472,21.439-48.366,47.914-49.845c60.942-3.404,108.117-23.304,148.461-62.625l0.245-0.231   c11.259-10.322,28.24-10.321,39.498,0l0.244,0.231c40.345,39.321,87.519,59.222,148.461,62.625   c26.475,1.479,47.522,23.373,47.914,49.845c0.088,5.928,0.243,11.262,0.472,16.307l0.009,0.291   c1.152,60.789,2.587,136.442-22.639,204.841c-13.762,37.317-34.578,69.752-61.868,96.403   c-31.137,30.408-71.97,54.585-121.365,71.859c-1.448,0.507-2.959,0.919-4.488,1.225   C260.349,511.799,258.181,512.014,256.013,512.014z M253.877,489.804c1.433,0.28,2.883,0.277,4.314-0.009   c0.528-0.105,1.045-0.246,1.534-0.417c196.427-68.692,193.411-232.272,191.145-351.774c-0.236-5.228-0.395-10.736-0.486-16.835   c-0.222-14.978-12.145-27.368-27.144-28.206c-33.372-1.863-62.661-8.3-89.541-19.678c-26.839-11.361-50.686-27.394-72.9-49.014   c-2.792-2.478-6.777-2.478-9.571-0.001c-22.214,21.619-46.063,37.653-72.902,49.015c-26.879,11.378-56.168,17.814-89.541,19.678   C73.788,93.4,61.865,105.79,61.642,120.769c-0.09,6.085-0.249,11.594-0.485,16.836l-0.007,0.391   c-2.274,119.369-5.389,282.852,191.147,351.383c0.487,0.17,1.006,0.31,1.536,0.417L253.877,489.804z"/>
	<path d="M256.004,381.471c-69.179,0-125.46-56.281-125.46-125.46s56.281-125.46,125.46-125.46s125.46,56.281,125.46,125.46   S325.183,381.471,256.004,381.471z M256.004,152.551c-57.048,0-103.46,46.412-103.46,103.46s46.412,103.46,103.46,103.46   s103.46-46.412,103.46-103.46S313.052,152.551,256.004,152.551z"/>
	<path style="fill:#33CCCC;" d="M311.871,218.752c-4.296-4.295-11.261-4.295-15.557,0l-63.281,63.281l-19.376-19.377   c-4.296-4.296-11.261-4.296-15.556,0c-4.296,4.296-4.296,11.261-0.001,15.557l27.154,27.155c0.268,0.269,0.547,0.52,0.835,0.755   c2.016,1.645,4.479,2.467,6.943,2.467c0.352,0,0.704-0.017,1.054-0.05c2.454-0.235,4.845-1.292,6.724-3.171l71.059-71.06   C316.166,230.013,316.166,223.048,311.871,218.752z"/>
</g>















</svg>
