<?xml version="1.0" encoding="iso-8859-1"?>
<!-- Generator: Adobe Illustrator 26.5.3, SVG Export Plug-In . SVG Version: 6.00 Build 0)  -->
<svg version="1.1" id="Capa_1" xmlns="http://www.w3.org/2000/svg" xmlns:xlink="http://www.w3.org/1999/xlink" x="0px" y="0px"
	 viewBox="0 0 512 512" style="enable-background:new 0 0 512 512;" xml:space="preserve">
<g>
	<g>
		<path style="fill:#33CCCC;" d="M342.61,265.85h-57.846c-6.075,0-11-4.925-11-11s4.925-11,11-11h57.846
			c37.761,0,71.664-22.474,86.375-57.254c2.365-5.595,8.816-8.212,14.416-5.846c5.595,2.367,8.213,8.821,5.846,14.417
			C431.086,238.104,389.228,265.85,342.61,265.85z"/>
	</g>
	<g>
		<path style="fill:#33CCCC;" d="M439.121,120.347c-4.287,0-8.361-2.521-10.136-6.718c-14.711-34.78-48.614-57.254-86.375-57.254
			h-57.846c-6.075,0-11-4.925-11-11s4.925-11,11-11h57.846c46.618,0,88.477,27.745,106.637,70.684
			c2.367,5.596-0.251,12.05-5.846,14.417C442.002,120.066,440.549,120.347,439.121,120.347z"/>
	</g>
	<g>
		<path style="fill:#33CCCC;" d="M196.702,56.375h-90.698c-6.075,0-11-4.925-11-11s4.925-11,11-11h90.698c6.075,0,11,4.925,11,11
			S202.777,56.375,196.702,56.375z"/>
	</g>
	<g>
		<path style="fill:#33CCCC;" d="M342.61,265.85h-57.846c-6.075,0-11-4.925-11-11s4.925-11,11-11h57.846c6.075,0,11,4.925,11,11
			S348.685,265.85,342.61,265.85z"/>
	</g>
	<g>
		<path style="fill:#33CCCC;" d="M67.586,328.761c-1.468,0-2.96-0.296-4.392-0.92c-5.568-2.429-8.114-8.912-5.686-14.48
			c18.415-42.226,60.075-69.511,106.134-69.511h32.262c6.075,0,11,4.925,11,11s-4.925,11-11,11h-32.262
			c-37.307,0-71.051,22.101-85.968,56.305C75.871,326.292,71.829,328.761,67.586,328.761z"/>
	</g>
	<g>
		<path style="fill:#33CCCC;" d="M195.905,475.324h-32.262c-46.061,0-87.722-27.287-106.136-69.516
			c-2.429-5.569,0.117-12.052,5.687-14.48c5.566-2.429,12.052,0.118,14.479,5.686c14.916,34.207,48.661,56.31,85.97,56.31h32.262
			c6.075,0,11,4.925,11,11S201.98,475.324,195.905,475.324z"/>
	</g>
	<g>
		<path style="fill:#33CCCC;" d="M342.61,475.324h-57.846c-6.075,0-11-4.925-11-11s4.925-11,11-11h57.846c6.075,0,11,4.925,11,11
			S348.685,475.324,342.61,475.324z"/>
	</g>
	<g>
		<path d="M496.484,350.574l6.682-16.479c2.487-6.135,1.764-13.076-1.935-18.566c-3.698-5.49-9.858-8.768-16.479-8.768h-76.294
			c-6.075,0-11,4.925-11,11v143.327c0,6.075,4.925,11,11,11s11-4.925,11-11v-66.699h65.294c6.62,0,12.78-3.278,16.479-8.768
			c3.698-5.491,4.422-12.432,1.935-18.567L496.484,350.574z M475.771,358.04l5.817,14.348h-62.13V328.76h62.13l-5.817,14.35
			C473.82,347.923,473.82,353.225,475.771,358.04z"/>
		<path d="M58.289,0C30.215,0,7.375,22.839,7.375,50.913s22.84,50.913,50.913,50.913s50.913-22.839,50.913-50.913S86.362,0,58.289,0
			z M58.289,79.826c-15.942,0-28.913-12.97-28.913-28.913S42.346,22,58.289,22s28.913,12.97,28.913,28.913
			S74.231,79.826,58.289,79.826z"/>
		<path d="M240.671,0c-28.073,0-50.913,22.839-50.913,50.913s22.84,50.913,50.913,50.913s50.912-22.839,50.912-50.913
			S268.745,0,240.671,0z M240.671,79.826c-15.942,0-28.913-12.97-28.913-28.913S224.729,22,240.671,22s28.912,12.97,28.912,28.913
			S256.614,79.826,240.671,79.826z"/>
		<path d="M240.671,201.871c-28.073,0-50.913,22.839-50.913,50.913c0,28.073,22.84,50.913,50.913,50.913
			s50.912-22.839,50.912-50.913C291.583,224.71,268.745,201.871,240.671,201.871z M240.671,281.696
			c-15.942,0-28.913-12.97-28.913-28.913c0-15.943,12.971-28.913,28.913-28.913s28.912,12.97,28.912,28.913
			C269.583,268.726,256.614,281.696,240.671,281.696z"/>
		<path d="M447.347,201.025c28.073,0,50.913-22.839,50.913-50.913c0-28.074-22.84-50.913-50.913-50.913
			s-50.913,22.839-50.913,50.913C396.434,178.186,419.274,201.025,447.347,201.025z M447.347,121.199
			c15.942,0,28.913,12.97,28.913,28.913c0,15.942-12.971,28.913-28.913,28.913s-28.913-12.97-28.913-28.913
			C418.434,134.169,431.405,121.199,447.347,121.199z"/>
		<path d="M58.289,308.674c-28.073,0-50.913,22.839-50.913,50.913c0,28.073,22.84,50.913,50.913,50.913s50.913-22.839,50.913-50.913
			C109.202,331.513,86.362,308.674,58.289,308.674z M58.289,388.5c-15.942,0-28.913-12.97-28.913-28.913
			c0-15.943,12.971-28.913,28.913-28.913s28.913,12.97,28.913,28.913C87.202,375.529,74.231,388.5,58.289,388.5z"/>
		<path d="M238.207,410.174c-28.073,0-50.913,22.839-50.913,50.913S210.134,512,238.207,512s50.913-22.839,50.913-50.913
			S266.281,410.174,238.207,410.174z M238.207,490c-15.942,0-28.913-12.97-28.913-28.913s12.971-28.913,28.913-28.913
			s28.913,12.97,28.913,28.913S254.15,490,238.207,490z"/>
	</g>
</g>
<g>
</g>
<g>
</g>
<g>
</g>
<g>
</g>
<g>
</g>
<g>
</g>
<g>
</g>
<g>
</g>
<g>
</g>
<g>
</g>
<g>
</g>
<g>
</g>
<g>
</g>
<g>
</g>
<g>
</g>
</svg>
