<?xml version="1.0" encoding="UTF-8"?>
<!-- Generator: Adobe Illustrator 26.0.3, SVG Export Plug-In . SVG Version: 6.00 Build 0)  -->
<svg xmlns="http://www.w3.org/2000/svg" xmlns:xlink="http://www.w3.org/1999/xlink" version="1.1" id="Capa_1" x="0px" y="0px" viewBox="0 0 512 512" style="enable-background:new 0 0 512 512;" xml:space="preserve" width="512" height="512">
<g>
	<path d="M433.881,12.797C425.637,4.545,414.671,0,403,0H174.333c-2.917,0-5.715,1.159-7.778,3.222l-98,98   c-2.062,2.063-3.222,4.861-3.222,7.778v359.334C65.333,492.411,84.922,512,109,512h294c11.671,0,22.638-4.545,30.876-12.792   c8.248-8.246,12.791-19.211,12.791-30.874V43.667C446.667,32.003,442.124,21.038,433.881,12.797z M178.889,22h0.777v70.667   c0,11.947-9.72,21.667-21.666,21.667H87.333v-0.777L178.889,22z M424.667,468.334c0,5.786-2.254,11.225-6.351,15.321   C414.228,487.747,408.79,490,403,490H109c-11.947,0-21.667-9.72-21.667-21.666v-332H158c24.078,0,43.666-19.589,43.666-43.667V22   H403c5.79,0,11.229,2.253,15.321,6.351c4.092,4.091,6.346,9.53,6.346,15.316V468.334z"/>
	<g>
		<g>
			<path style="fill:#33CCCC;" d="M256,395.498c-60.103,0-109-48.897-109-109c0-60.103,48.897-109,109-109     c60.103,0,109,48.897,109,109C365,346.601,316.102,395.498,256,395.498z M256,199.498c-47.972,0-87,39.028-87,87     c0,47.972,39.028,87,87,87c47.972,0,87-39.028,87-87C343,238.526,303.971,199.498,256,199.498z"/>
		</g>
		<g>
			<path d="M247.833,338.332c-2.907,0-5.708-1.152-7.778-3.222l-32.667-32.667c-4.295-4.296-4.295-11.261,0-15.557     c4.296-4.296,11.261-4.296,15.557,0l23.698,23.699l41.39-55.187c3.646-4.859,10.54-5.846,15.399-2.2     c4.86,3.645,5.846,10.54,2.2,15.4l-49,65.333c-1.913,2.551-4.839,4.146-8.02,4.372     C248.352,338.322,248.092,338.332,247.833,338.332z"/>
		</g>
	</g>
</g>















</svg>
